<mxfile host="app.diagrams.net" modified="2023-11-07T05:49:13.776Z" agent="Mozilla/5.0 (Windows NT 10.0; Win64; x64) AppleWebKit/537.36 (KHTML, like Gecko) Chrome/119.0.0.0 Safari/537.36" etag="xltGTNuKsOAlpLr0IBE5" version="22.0.8" type="github">
  <diagram name="第 1 页" id="zljwna4NSlO7hE_QJYxI">
    <mxGraphModel dx="1050" dy="542" grid="1" gridSize="10" guides="1" tooltips="1" connect="1" arrows="1" fold="1" page="1" pageScale="1" pageWidth="827" pageHeight="1169" math="0" shadow="0">
      <root>
        <mxCell id="0" />
        <mxCell id="1" parent="0" />
        <mxCell id="nh00wtuz77gdXIyS5sqP-7" style="edgeStyle=orthogonalEdgeStyle;rounded=0;orthogonalLoop=1;jettySize=auto;html=1;entryX=0;entryY=0.5;entryDx=0;entryDy=0;" edge="1" parent="1" source="nh00wtuz77gdXIyS5sqP-1" target="nh00wtuz77gdXIyS5sqP-6">
          <mxGeometry relative="1" as="geometry" />
        </mxCell>
        <mxCell id="nh00wtuz77gdXIyS5sqP-8" style="edgeStyle=orthogonalEdgeStyle;rounded=0;orthogonalLoop=1;jettySize=auto;html=1;entryX=0;entryY=0.5;entryDx=0;entryDy=0;" edge="1" parent="1" source="nh00wtuz77gdXIyS5sqP-1" target="nh00wtuz77gdXIyS5sqP-2">
          <mxGeometry relative="1" as="geometry" />
        </mxCell>
        <mxCell id="nh00wtuz77gdXIyS5sqP-9" style="edgeStyle=orthogonalEdgeStyle;rounded=0;orthogonalLoop=1;jettySize=auto;html=1;entryX=0;entryY=0.5;entryDx=0;entryDy=0;" edge="1" parent="1" source="nh00wtuz77gdXIyS5sqP-1" target="nh00wtuz77gdXIyS5sqP-3">
          <mxGeometry relative="1" as="geometry" />
        </mxCell>
        <mxCell id="nh00wtuz77gdXIyS5sqP-10" style="edgeStyle=orthogonalEdgeStyle;rounded=0;orthogonalLoop=1;jettySize=auto;html=1;entryX=0;entryY=0.5;entryDx=0;entryDy=0;" edge="1" parent="1" source="nh00wtuz77gdXIyS5sqP-1" target="nh00wtuz77gdXIyS5sqP-4">
          <mxGeometry relative="1" as="geometry" />
        </mxCell>
        <mxCell id="nh00wtuz77gdXIyS5sqP-11" style="edgeStyle=orthogonalEdgeStyle;rounded=0;orthogonalLoop=1;jettySize=auto;html=1;entryX=0;entryY=0.5;entryDx=0;entryDy=0;" edge="1" parent="1" source="nh00wtuz77gdXIyS5sqP-1" target="nh00wtuz77gdXIyS5sqP-5">
          <mxGeometry relative="1" as="geometry" />
        </mxCell>
        <mxCell id="nh00wtuz77gdXIyS5sqP-1" value="" style="rounded=1;whiteSpace=wrap;html=1;fillColor=#dae8fc;strokeColor=#6c8ebf;" vertex="1" parent="1">
          <mxGeometry x="80" y="220" width="120" height="60" as="geometry" />
        </mxCell>
        <mxCell id="nh00wtuz77gdXIyS5sqP-2" value="" style="rounded=1;whiteSpace=wrap;html=1;" vertex="1" parent="1">
          <mxGeometry x="294" y="150" width="120" height="60" as="geometry" />
        </mxCell>
        <mxCell id="nh00wtuz77gdXIyS5sqP-3" value="" style="rounded=1;whiteSpace=wrap;html=1;" vertex="1" parent="1">
          <mxGeometry x="290" y="250" width="120" height="60" as="geometry" />
        </mxCell>
        <mxCell id="nh00wtuz77gdXIyS5sqP-4" value="" style="rounded=1;whiteSpace=wrap;html=1;" vertex="1" parent="1">
          <mxGeometry x="290" y="360" width="120" height="60" as="geometry" />
        </mxCell>
        <mxCell id="nh00wtuz77gdXIyS5sqP-5" value="" style="rounded=1;whiteSpace=wrap;html=1;" vertex="1" parent="1">
          <mxGeometry x="290" y="460" width="120" height="60" as="geometry" />
        </mxCell>
        <mxCell id="nh00wtuz77gdXIyS5sqP-17" style="edgeStyle=orthogonalEdgeStyle;rounded=0;orthogonalLoop=1;jettySize=auto;html=1;entryX=0;entryY=0.5;entryDx=0;entryDy=0;" edge="1" parent="1" source="nh00wtuz77gdXIyS5sqP-6" target="nh00wtuz77gdXIyS5sqP-13">
          <mxGeometry relative="1" as="geometry" />
        </mxCell>
        <mxCell id="nh00wtuz77gdXIyS5sqP-18" style="edgeStyle=orthogonalEdgeStyle;rounded=0;orthogonalLoop=1;jettySize=auto;html=1;entryX=0;entryY=0.5;entryDx=0;entryDy=0;" edge="1" parent="1" source="nh00wtuz77gdXIyS5sqP-6" target="nh00wtuz77gdXIyS5sqP-14">
          <mxGeometry relative="1" as="geometry" />
        </mxCell>
        <mxCell id="nh00wtuz77gdXIyS5sqP-19" style="edgeStyle=orthogonalEdgeStyle;rounded=0;orthogonalLoop=1;jettySize=auto;html=1;entryX=0;entryY=0.5;entryDx=0;entryDy=0;" edge="1" parent="1" source="nh00wtuz77gdXIyS5sqP-6" target="nh00wtuz77gdXIyS5sqP-15">
          <mxGeometry relative="1" as="geometry" />
        </mxCell>
        <mxCell id="nh00wtuz77gdXIyS5sqP-6" value="" style="rounded=1;whiteSpace=wrap;html=1;" vertex="1" parent="1">
          <mxGeometry x="294" y="60" width="120" height="60" as="geometry" />
        </mxCell>
        <mxCell id="nh00wtuz77gdXIyS5sqP-12" value="" style="rounded=1;whiteSpace=wrap;html=1;" vertex="1" parent="1">
          <mxGeometry x="480" width="80" height="40" as="geometry" />
        </mxCell>
        <mxCell id="nh00wtuz77gdXIyS5sqP-13" value="" style="rounded=1;whiteSpace=wrap;html=1;" vertex="1" parent="1">
          <mxGeometry x="480" y="90" width="120" height="60" as="geometry" />
        </mxCell>
        <mxCell id="nh00wtuz77gdXIyS5sqP-14" value="" style="rounded=1;whiteSpace=wrap;html=1;" vertex="1" parent="1">
          <mxGeometry x="480" y="190" width="120" height="60" as="geometry" />
        </mxCell>
        <mxCell id="nh00wtuz77gdXIyS5sqP-15" value="" style="rounded=1;whiteSpace=wrap;html=1;" vertex="1" parent="1">
          <mxGeometry x="480" y="280" width="120" height="60" as="geometry" />
        </mxCell>
        <mxCell id="nh00wtuz77gdXIyS5sqP-16" style="edgeStyle=orthogonalEdgeStyle;rounded=0;orthogonalLoop=1;jettySize=auto;html=1;entryX=-0.003;entryY=0.62;entryDx=0;entryDy=0;entryPerimeter=0;" edge="1" parent="1" source="nh00wtuz77gdXIyS5sqP-6" target="nh00wtuz77gdXIyS5sqP-12">
          <mxGeometry relative="1" as="geometry" />
        </mxCell>
      </root>
    </mxGraphModel>
  </diagram>
</mxfile>
